Coordinates
version=1
nRows=13
nColumns=40
inDegrees=yes

Units are S.I. units (second, meters, Newtons, ...)
If the header above contains a line with 'inDegrees', this indicates whether rotational values are in degrees (yes) or radians (no).

endheader
time	pelvis_tilt	pelvis_list	pelvis_rotation	pelvis_tx	pelvis_ty	pelvis_tz	hip_flexion_r	hip_adduction_r	hip_rotation_r	knee_angle_r	knee_angle_r_beta	ankle_angle_r	subtalar_angle_r	mtp_angle_r	hip_flexion_l	hip_adduction_l	hip_rotation_l	knee_angle_l	knee_angle_l_beta	ankle_angle_l	subtalar_angle_l	mtp_angle_l	lumbar_extension	lumbar_bending	lumbar_rotation	arm_flex_r	arm_add_r	arm_rot_r	elbow_flex_r	pro_sup_r	wrist_flex_r	wrist_dev_r	arm_flex_l	arm_add_l	arm_rot_l	elbow_flex_l	pro_sup_l	wrist_flex_l	wrist_dev_l
      1.67000000	     -4.81011442	    -10.01899464	     87.63140463	      0.17553994	      0.92624118	     -0.98877315	     37.17419756	     -1.80726025	      2.18972327	     48.58340404	      0.84794036	      4.17135467	     -0.00000000	     -0.00000000	      9.40772335	      7.27692091	      2.01549915	      4.08519759	      0.07130015	      4.88396275	      0.00000000	     -0.00000000	      6.19847843	     -6.11425843	     -0.12265701	     -0.00000000	     -0.00000000	     -0.00000000	      0.00000000	      0.00000000	      0.00000000	     -0.00000000	     -0.00000000	      0.00000000	      0.00000000	      0.00000000	      0.00000000	      0.00000000	     -0.00000000
      1.68000000	     -4.47707609	     -9.62291926	     88.09568697	      0.17468772	      0.92618336	     -1.00685310	     37.34902148	     -1.83117075	      1.46122691	     44.65721042	      0.77941536	      4.43686823	      0.00000000	      0.00000000	      6.98194666	      7.13276258	      3.38213644	      2.74801178	      0.04796185	      5.29834924	      0.00000000	      0.00000000	      5.69202389	     -5.71865364	     -0.72243020	      0.00000000	      0.00000000	      0.00000000	      0.00000000	      0.00000000	      0.00000000	      0.00000000	      0.00000000	      0.00000000	      0.00000000	      0.00000000	      0.00000000	      0.00000000	      0.00000000
      1.69000000	     -4.27265121	     -9.50466412	     88.50494988	      0.17391554	      0.92496206	     -1.02479968	     37.78518276	     -1.93559203	      0.81845225	     40.60651256	      0.70871734	      4.69696115	      0.00000000	      0.00000000	      5.04869715	      7.05577740	      4.23488543	      1.73269997	      0.03024132	      5.82397949	      0.00000000	      0.00000000	      5.52690135	     -5.45305488	     -1.27903069	      0.00000000	      0.00000000	      0.00000000	      0.00000000	      0.00000000	      0.00000000	      0.00000000	      0.00000000	      0.00000000	      0.00000000	      0.00000000	      0.00000000	      0.00000000	      0.00000000
      1.70000000	     -4.14485276	     -9.55482575	     88.90847932	      0.17317978	      0.92285332	     -1.04270452	     38.32214811	     -2.10938282	      0.20161349	     36.39966606	      0.63529402	      5.01185575	      0.00000000	      0.00000000	      3.44245398	      7.02612652	      4.88053075	      0.98567575	      0.01720329	      6.45811169	      0.00000000	      0.00000000	      5.57898481	     -5.27486081	     -1.80851307	      0.00000000	      0.00000000	      0.00000000	      0.00000000	      0.00000000	      0.00000000	      0.00000000	      0.00000000	      0.00000000	      0.00000000	      0.00000000	      0.00000000	      0.00000000	      0.00000000
      1.71000000	     -4.15358268	     -9.11178857	     89.23707370	      0.17257406	      0.92085237	     -1.06100456	     38.22592876	     -2.39468888	     -0.34457160	     32.05875563	      0.55953084	      5.21930478	     -0.00000000	     -0.00000000	      1.15483379	      7.11431088	      5.65606865	     -0.00080763	     -0.00001410	      7.02987257	     -0.00000000	      0.00000000	      5.06408604	     -5.26700367	     -2.23899811	     -0.00000000	     -0.00000000	      0.00000000	      0.00000000	      0.00000000	     -0.00000000	      0.00000000	      0.00000000	      0.00000000	     -0.00000000	      0.00000000	      0.00000000	      0.00000000	     -0.00000000
      1.72000000	     -4.23800562	     -8.86118201	     89.46572140	      0.17219145	      0.91804476	     -1.07924230	     38.30100207	     -2.65461808	     -0.69451216	     27.66355638	      0.48282014	      5.50178180	      0.00000000	      0.00000000	     -0.82038355	      7.24151560	      6.17052074	     -0.78659557	     -0.01372868	      7.66888934	      0.00000000	      0.00000000	      4.79404083	     -5.33326480	     -2.55804303	      0.00000000	      0.00000000	      0.00000000	      0.00000000	      0.00000000	      0.00000000	      0.00000000	      0.00000000	      0.00000000	      0.00000000	      0.00000000	      0.00000000	      0.00000000	      0.00000000
      1.73000000	     -4.40298772	     -8.60763194	     89.61457815	      0.17200249	      0.91480537	     -1.09751737	     38.31951297	     -2.91343408	     -0.81111796	     23.25131929	      0.40581208	      5.78054927	      0.00000000	      0.00000000	     -2.77247789	      7.42190785	      6.57685996	     -1.50465870	     -0.02626125	      8.30054060	      0.00000000	      0.00000000	      4.52562986	     -5.49116325	     -2.79173610	      0.00000000	      0.00000000	      0.00000000	      0.00000000	      0.00000000	      0.00000000	      0.00000000	      0.00000000	      0.00000000	      0.00000000	      0.00000000	      0.00000000	      0.00000000	      0.00000000
      1.74000000	     -4.58714675	     -8.41091281	     89.69589391	      0.17206396	      0.91118250	     -1.11586142	     38.31936500	     -3.10521206	     -0.60391381	     18.84872128	      0.32897225	      6.01762842	      0.00000000	      0.00000000	     -4.65257983	      7.58765096	      6.90852513	     -2.18056354	     -0.03805801	      8.97734163	      0.00000000	      0.00000000	      4.33609776	     -5.68168111	     -2.91356453	      0.00000000	      0.00000000	      0.00000000	      0.00000000	      0.00000000	      0.00000000	      0.00000000	      0.00000000	      0.00000000	      0.00000000	      0.00000000	      0.00000000	      0.00000000	      0.00000000
      1.75000000	     -4.82433321	     -8.16846210	     89.75819965	      0.17224189	      0.90738052	     -1.13423619	     38.20754764	     -3.32212770	     -0.07857341	     14.56230410	      0.25416015	      6.27907555	      0.00000000	      0.00000000	     -6.56401599	      7.78447292	      7.26163540	     -2.80652168	     -0.04898304	      9.43217827	      0.00000000	      0.00000000	      4.09456725	     -5.94366821	     -3.02681078	      0.00000000	      0.00000000	      0.00000000	      0.00000000	      0.00000000	      0.00000000	      0.00000000	      0.00000000	      0.00000000	      0.00000000	      0.00000000	      0.00000000	      0.00000000	      0.00000000
      1.76000000	     -5.08366759	     -8.00066740	     89.79710710	      0.17257099	      0.90334576	     -1.15270025	     38.10191412	     -3.54257505	      0.82223642	     10.49716812	      0.18321015	      6.49768436	      0.00000000	      0.00000000	     -8.34452822	      7.97656988	      7.57705557	     -3.31009547	     -0.05777206	      9.91325607	      0.00000000	      0.00000000	      3.95066649	     -6.24054391	     -3.08147373	      0.00000000	      0.00000000	      0.00000000	      0.00000000	      0.00000000	      0.00000000	      0.00000000	      0.00000000	      0.00000000	      0.00000000	      0.00000000	      0.00000000	      0.00000000	      0.00000000
      1.77000000	     -5.39852706	     -7.93578403	     89.82241587	      0.17296883	      0.89913147	     -1.17126087	     38.08291843	     -3.82518271	      2.06762699	      6.87282758	      0.11995347	      6.76605610	     -0.00000000	      0.00000000	     -9.92174393	      8.21212697	      7.85244555	     -3.61931625	     -0.06316899	     10.35534471	      0.00000000	     -0.00000000	      3.94466445	     -6.60823748	     -3.10083700	      0.00000000	      0.00000000	     -0.00000000	      0.00000000	      0.00000000	      0.00000000	     -0.00000000	      0.00000000	     -0.00000000	     -0.00000000	      0.00000000	      0.00000000	     -0.00000000	      0.00000000
      1.78000000	     -5.70487094	     -7.92900974	     89.84344551	      0.17343037	      0.89490522	     -1.18997776	     38.15428903	     -4.12546323	      3.35767882	      3.94341088	      0.06882550	      7.14984090	      0.00000000	      0.00000000	    -11.34001296	      8.42367185	      8.10569755	     -3.72905632	     -0.06508431	     10.68795111	      0.00000000	      0.00000000	      4.03202607	     -6.97393926	     -3.11263717	      0.00000000	      0.00000000	      0.00000000	      0.00000000	      0.00000000	      0.00000000	      0.00000000	      0.00000000	      0.00000000	      0.00000000	      0.00000000	      0.00000000	      0.00000000	      0.00000000
      1.79000000	     -5.88461168	     -7.76926611	     89.85782649	      0.17410283	      0.89110375	     -1.20904623	     38.07273848	     -4.29562227	      4.41621043	      1.84472330	      0.03219650	      7.50873128	      0.00000000	      0.00000000	    -12.84912584	      8.48344620	      8.29565953	     -3.67202741	     -0.06408897	     10.91171275	      0.00000000	      0.00000000	      3.96546748	     -7.19600956	     -3.05540158	      0.00000000	      0.00000000	      0.00000000	      0.00000000	      0.00000000	      0.00000000	      0.00000000	      0.00000000	      0.00000000	      0.00000000	      0.00000000	      0.00000000	      0.00000000	      0.00000000
